<svg version="1.1" id="Layer_1" xmlns="http://www.w3.org/2000/svg" xmlns:xlink="http://www.w3.org/1999/xlink" x="0px"
	y="0px" width="100%" viewBox="0 0 1024 1024" enable-background="new 0 0 1024 1024" xml:space="preserve">
	<path fill="#008080" opacity="1.000000" stroke="none" d="
M878.970093,505.907227 
	C875.504639,512.155396 870.115906,513.966919 863.740967,514.247681 
	C857.425293,514.525818 851.108215,514.999939 844.823303,515.680359 
	C839.076721,516.302368 838.665100,517.317261 841.499695,522.135010 
	C867.879028,566.969482 886.954224,614.732544 898.794617,665.375488 
	C901.937256,678.817200 904.857910,692.315491 906.347229,706.067566 
	C906.598389,708.386169 907.473450,710.181946 909.422302,711.492004 
	C910.525757,712.233643 911.882568,712.903442 912.531128,713.967590 
	C916.879822,721.103760 923.277283,725.169739 930.335876,729.629517 
	C936.393921,733.457031 941.528992,740.953674 945.592957,747.635132 
	C950.054810,754.970581 948.223938,763.817322 946.858765,772.078674 
	C943.848572,790.295593 933.692139,804.960938 923.172546,819.426086 
	C914.724670,831.042480 905.132629,841.666870 894.964600,851.790161 
	C893.349121,853.398499 891.908936,855.182983 890.045532,857.269043 
	C899.761963,863.734070 910.868652,866.282715 920.519287,872.577393 
	C917.594421,874.982483 914.806824,874.380432 912.117554,873.848206 
	C905.409180,872.520325 898.880859,870.515259 892.440125,868.242737 
	C890.321167,867.495117 888.399048,867.319824 886.160950,868.067139 
	C873.366760,872.338806 862.550110,867.949463 856.602661,855.799866 
	C854.616577,851.742798 852.364380,848.527405 848.093018,846.609314 
	C845.029480,845.233643 842.949463,842.415161 841.223328,839.514221 
	C839.315979,836.308777 836.447571,834.481140 832.955933,833.498718 
	C808.457581,826.605347 786.805054,814.652954 768.271423,797.146423 
	C767.667603,796.576111 767.036194,796.029114 766.373718,795.529480 
	C766.127808,795.344055 765.755554,795.326172 765.360107,795.207642 
	C763.545105,796.478882 764.340942,798.544983 764.002136,800.215515 
	C761.818115,810.984131 751.975891,817.790283 741.075684,815.931580 
	C740.255859,815.791748 739.440491,815.402283 738.635803,815.435608 
	C735.134155,815.580322 731.541748,811.372070 728.108948,815.795349 
	C723.746216,821.416931 720.920654,827.438477 722.653748,834.751465 
	C723.171753,836.937439 724.938293,838.126892 727.036133,838.335266 
	C741.701965,839.791931 755.276062,845.881042 769.716614,848.298279 
	C776.601807,849.450806 783.520264,850.591003 790.264587,852.347717 
	C797.426575,854.213257 800.875793,858.969421 801.267273,866.059326 
	C801.741455,874.646240 798.598572,878.107910 788.879150,880.092590 
	C791.835144,880.613831 794.805359,881.065857 797.744385,881.669617 
	C805.696960,883.303467 810.030457,888.786499 810.255371,897.389954 
	C810.513245,907.249512 806.753845,913.529663 798.683289,915.381958 
	C785.196838,918.477173 771.310974,919.022217 757.682190,921.270508 
	C755.220032,921.676697 752.745483,922.159790 750.263367,922.253540 
	C747.512878,922.357422 745.638794,923.398376 744.107056,925.731140 
	C737.684875,935.512146 727.079346,936.032776 716.926514,937.760742 
	C721.318420,933.567200 727.400208,931.510498 731.067810,925.559753 
	C724.026367,925.145630 717.618591,926.897522 711.183716,927.715271 
	C679.157654,931.785034 647.162231,936.096558 615.158875,940.344666 
	C584.476807,944.417358 553.801514,948.541443 523.117188,952.597046 
	C490.619720,956.892273 458.111847,961.108643 425.614990,965.408386 
	C408.953552,967.612793 392.327667,970.081238 375.570038,971.517456 
	C367.414032,972.216553 359.673492,970.376953 352.023224,968.035217 
	C296.791382,951.128967 241.329102,935.011841 185.739548,919.327942 
	C164.275436,913.272095 142.810089,907.220642 121.352905,901.140381 
	C111.285637,898.287598 106.970932,891.915710 108.526558,882.328430 
	C109.680588,875.216187 112.570068,872.020996 119.681732,870.820740 
	C135.294830,868.185547 151.115692,867.370667 166.840683,865.710205 
	C171.393448,865.229431 175.948334,864.768799 180.540726,863.826233 
	C173.753769,860.388611 166.328888,859.430298 159.189346,857.573486 
	C145.501541,854.013550 131.719131,850.819092 118.009674,847.340210 
	C110.200180,845.358459 106.689796,841.218384 106.879120,834.729736 
	C107.088654,827.548889 111.998032,822.074341 119.582428,820.860413 
	C124.675217,820.045288 129.801071,819.388000 134.933884,818.879578 
	C168.398666,815.565308 201.865875,812.274475 235.339966,809.056030 
	C248.098679,807.829224 260.878754,806.825500 273.646942,805.696106 
	C279.663605,805.163940 280.396851,804.562561 279.714203,798.676453 
	C278.480652,788.040710 278.518707,777.395386 278.922729,766.739014 
	C279.060883,763.095154 277.810089,762.152466 274.181396,762.731689 
	C260.806244,764.866760 260.264008,764.080078 263.634003,750.877808 
	C266.643555,739.087646 270.411560,727.532288 274.007874,715.921021 
	C274.735107,713.572876 275.780029,711.267151 275.649536,708.220398 
	C268.139038,707.692566 261.042725,709.623230 253.904373,710.537598 
	C242.023422,712.059509 230.212860,714.131714 218.373642,715.978516 
	C211.883713,716.990784 209.668167,714.840332 210.954559,708.175964 
	C212.846054,698.376770 215.030075,688.633850 217.123474,678.874268 
	C217.400070,677.584717 217.910843,676.338257 217.271225,675.059631 
	C215.205917,674.043091 213.624084,675.353699 211.989594,675.937195 
	C191.286545,683.327881 170.844406,691.391785 150.547134,699.828857 
	C144.173416,702.478271 141.496719,701.789001 137.987396,696.007263 
	C118.152626,663.328918 100.802368,629.418335 87.123787,593.664062 
	C80.207748,575.586365 74.301720,557.229492 70.258652,538.293335 
	C69.843002,536.346558 69.517815,534.345642 69.470779,532.362244 
	C69.370811,528.146545 71.321266,525.561401 75.631065,524.592102 
	C91.410233,521.043274 107.403839,518.759155 123.438644,516.958313 
	C153.088974,513.628235 182.857498,512.251282 212.706131,512.823792 
	C224.701202,513.053833 236.663223,513.773926 248.624374,514.655762 
	C254.727707,515.105774 254.917450,514.726318 253.955978,508.726501 
	C252.443832,499.290558 251.818634,489.815125 253.983063,480.425781 
	C255.446487,474.077423 257.942963,468.247711 265.308716,466.604370 
	C267.814301,466.045380 267.807800,464.157227 267.533966,462.307068 
	C264.915070,444.612579 269.108673,428.655212 279.304108,414.038940 
	C282.425812,409.563690 280.867706,403.960724 281.446075,398.922119 
	C283.452942,381.438019 288.864929,365.163055 297.309509,349.834839 
	C300.907043,343.304779 301.120453,343.203033 294.454010,339.527527 
	C263.979187,322.725342 236.824310,301.643982 213.402115,275.941132 
	C184.089905,243.774719 161.305237,207.699112 149.091095,165.516006 
	C147.029327,158.395447 146.319077,151.157669 146.635818,143.769882 
	C147.045441,134.216019 152.092087,129.112320 161.648224,128.700073 
	C176.548920,128.057251 190.810928,131.470810 204.768936,136.038345 
	C254.449554,152.295532 298.029510,179.137070 337.200745,213.393799 
	C355.801178,229.660599 372.989014,247.329971 387.913147,267.086975 
	C389.685364,269.433105 391.166870,269.744202 393.716766,268.439667 
	C413.694611,258.218842 434.992645,252.568115 457.277710,250.540573 
	C461.555511,250.151382 464.400848,248.190079 467.219360,244.926270 
	C481.750031,228.099838 500.674438,221.472076 522.480652,222.365891 
	C537.170288,222.967987 550.506531,227.737976 562.488953,236.282700 
	C563.412537,236.941284 564.396423,237.663162 565.807190,237.399796 
	C567.538513,236.246521 567.851868,234.172211 568.625122,232.377457 
	C592.861328,176.127396 627.539368,127.765663 676.336487,90.137474 
	C681.598938,86.079483 687.355835,82.649635 692.974121,79.070877 
	C696.353149,76.918434 700.002930,75.284584 703.937073,74.328697 
	C713.069641,72.109734 718.855408,75.127785 721.858765,83.981400 
	C726.162659,96.668587 726.471558,109.864380 725.931885,123.015480 
	C724.505981,157.763702 716.938477,191.263657 704.393494,223.653015 
	C691.653015,256.547058 673.842590,286.531525 651.810303,314.005890 
	C648.777710,317.787445 648.254578,320.719391 650.643005,325.057922 
	C654.887024,332.766937 656.844604,341.273315 656.224487,350.101013 
	C655.838501,355.596527 657.364929,360.066589 660.670044,364.403992 
	C665.735168,371.051086 669.213867,378.678802 672.986023,386.103363 
	C674.219727,388.531525 674.258057,392.481506 677.653992,392.502441 
	C681.466919,392.526001 685.656555,390.870850 687.379578,387.338409 
	C690.294373,381.362793 695.415161,378.448914 700.505737,374.883301 
	C706.595825,370.617554 711.791504,365.073792 717.368164,360.076294 
	C723.853394,354.264496 730.888794,350.500946 739.695801,347.997742 
	C753.936707,343.950012 768.710693,340.255615 781.306519,331.599823 
	C784.426453,329.455872 787.945557,328.776184 791.720276,328.660675 
	C809.418884,328.119049 826.972107,330.609344 844.621094,331.074097 
	C850.008484,331.215912 853.969116,334.005035 857.054016,338.362671 
	C862.577393,346.164886 865.395447,354.997528 867.089172,364.237427 
	C873.688721,400.239716 878.456970,436.570709 886.253601,472.354218 
	C888.938416,484.676544 887.581177,495.809387 878.970093,505.907227 
M473.147949,764.590637 
	C477.908264,769.142639 482.501221,769.014526 486.707855,763.890930 
	C488.977112,761.127014 490.793671,757.991394 492.808868,755.031738 
	C499.182556,759.507935 500.266083,759.190491 503.036194,751.907837 
	C506.085144,743.892029 507.377533,735.510010 507.642395,726.980286 
	C508.333313,704.735413 501.819672,683.913513 494.903717,663.176758 
	C494.263306,661.256531 492.984619,659.395020 493.771881,657.200256 
	C495.287323,657.232117 495.739655,658.216797 496.199554,659.053406 
	C504.978241,675.023010 512.545166,691.437195 515.146667,709.731506 
	C517.497803,726.265076 516.109619,742.297913 508.896820,757.539978 
	C504.641663,766.532043 502.444611,767.372314 492.775970,764.155701 
	C488.709869,772.676392 482.036133,776.222656 472.488342,773.258972 
	C474.100769,783.644348 473.203857,793.096375 468.646149,802.041626 
	C466.877747,805.512390 466.061859,809.128174 466.186768,813.104553 
	C466.705139,829.606689 462.943634,845.137329 455.107483,859.678162 
	C454.499512,860.806335 453.581451,861.921936 454.686584,863.671326 
	C455.472382,863.671326 456.456604,863.770264 457.415649,863.656677 
	C472.615631,861.855957 487.811279,860.018433 503.010193,858.208496 
	C524.321655,855.670593 545.638611,853.178650 566.945923,850.605957 
	C576.357117,849.469604 585.742615,848.118408 595.156189,847.003113 
	C598.146912,846.648743 599.156860,845.199219 598.854614,842.342834 
	C598.504517,839.035095 597.921814,835.682800 598.136414,832.395386 
	C600.045532,803.157288 611.987915,778.921143 634.586975,760.078979 
	C635.952271,758.940613 637.752991,758.167664 638.414551,755.274475 
	C638.086060,755.091980 637.140869,754.855957 636.659058,754.250977 
	C634.055298,750.981812 631.628235,749.494507 627.824463,753.083435 
	C625.288269,755.476318 622.157043,754.179321 619.608582,752.218994 
	C618.088989,751.050171 616.767883,750.420715 614.639832,751.128235 
	C609.130981,752.960083 605.981384,751.591980 603.113342,746.479004 
	C599.122070,739.363831 597.343262,731.576416 596.872314,723.533203 
	C596.030701,709.159241 597.554382,694.929260 600.145386,680.805847 
	C600.444275,679.176758 600.390381,677.086792 602.785400,676.478821 
	C603.813721,679.212891 602.934387,681.802856 602.737610,684.424744 
	C601.399719,702.254517 600.928345,720.039795 606.584717,737.359009 
	C609.523926,746.358704 611.645203,747.099548 618.556335,741.588806 
	C621.236511,743.253784 621.166260,748.086182 625.497803,747.900391 
	C629.651001,747.722290 630.184326,743.056274 633.736084,740.997314 
	C634.109131,741.654907 634.429443,742.227966 634.757507,742.796570 
	C637.912781,748.264648 640.061523,748.298340 643.228455,742.887634 
	C643.900391,741.739746 644.322754,740.230835 645.863892,740.152405 
	C649.768311,739.953674 650.529968,736.919556 651.580017,734.120667 
	C657.147766,719.280090 657.208008,704.097900 653.784302,688.884094 
	C648.276123,664.406860 634.569397,644.481506 618.092834,626.196472 
	C617.472778,625.508240 616.462524,625.171570 615.646057,624.678345 
	C614.024536,625.858093 612.567078,626.918457 610.724731,628.258789 
	C609.335999,624.247803 606.933044,625.423767 604.419495,626.697083 
	C596.396606,630.761292 588.202820,634.328430 579.559937,637.000916 
	C562.280518,642.343994 544.693420,645.780640 526.622009,646.228821 
	C490.461792,647.125549 455.395508,641.023499 421.066010,629.767273 
	C397.949860,622.187744 374.794037,614.824463 352.926392,603.974365 
	C348.643890,601.849487 345.047150,603.240173 342.609436,607.933655 
	C339.693939,613.547058 337.095154,619.324158 334.305359,625.003967 
	C330.211975,633.337830 330.199982,633.316956 337.419739,638.851257 
	C338.472504,639.658264 339.433441,640.594055 340.383698,641.524536 
	C351.488373,652.398926 349.916534,662.171875 335.986847,669.013367 
	C328.786194,672.549866 321.219421,675.131226 313.591553,677.527405 
	C310.637299,678.455444 308.720184,680.170166 307.775085,683.119934 
	C305.591705,689.934509 303.460602,696.770386 301.056183,703.507690 
	C299.960693,706.577271 301.061127,707.788025 303.870483,708.429565 
	C309.058014,709.614136 314.396606,710.329712 319.257782,712.632507 
	C324.030609,714.893494 329.531219,716.708069 330.213684,723.067749 
	C330.918488,729.635864 325.648743,732.258240 321.214569,735.091492 
	C312.498291,740.660889 303.179108,745.147339 293.862762,749.606689 
	C290.930634,751.010132 289.248688,752.799866 288.979340,756.349731 
	C287.805084,771.825989 287.298187,787.252869 290.206390,802.612183 
	C295.144440,828.691467 307.892975,849.643127 331.381287,862.787964 
	C353.057068,874.918396 376.927917,876.714417 401.186981,875.510437 
	C402.438873,875.448303 403.866455,875.327820 405.060364,873.668640 
	C398.537201,860.795776 397.606323,846.880798 399.689758,832.586609 
	C402.761505,811.511902 410.450775,792.414001 424.634216,776.360107 
	C429.372467,770.997009 434.741119,765.817078 443.203735,765.792603 
	C409.610199,748.473389 389.683563,721.357056 382.819244,684.264282 
	C384.738739,684.272400 385.040527,685.286377 385.316772,686.218018 
	C387.756165,694.444824 391.903198,701.876038 396.318115,709.125732 
	C410.515594,732.439392 428.561859,751.464111 454.972992,761.035034 
	C456.651337,761.643250 458.419739,762.617981 459.577271,763.925781 
	C462.369690,767.080688 464.892975,767.029602 467.339325,763.809326 
	C469.368256,761.138428 471.028473,761.484192 473.147949,764.590637 
M675.689880,474.322723 
	C676.421692,467.633301 679.620422,462.049866 683.480835,456.736572 
	C684.406738,455.462128 685.966064,454.397980 685.289185,452.371429 
	C682.547058,444.162018 680.059265,435.859406 677.037048,427.755463 
	C675.575439,423.836304 671.612671,425.203552 668.647217,425.378021 
	C665.286255,425.575806 666.129578,428.545898 666.433716,430.440491 
	C667.398987,436.452820 666.923889,442.383789 666.196899,448.354919 
	C664.676331,460.843964 654.947510,470.939545 643.240845,471.652527 
	C633.269226,472.259766 626.435669,466.393616 621.312012,458.997803 
	C610.889038,443.953003 608.858887,427.167603 614.223145,409.866333 
	C617.085693,400.633881 622.562744,392.735504 633.585022,392.282532 
	C642.595520,391.912323 649.291809,396.807343 654.874451,403.526001 
	C656.613403,405.618774 657.932495,409.226715 661.965881,406.799011 
	C667.966248,403.187439 669.539307,400.104828 667.571533,395.292725 
	C665.174805,389.431610 662.774841,383.542480 659.381592,378.185303 
	C652.628174,367.523315 646.596069,356.285309 635.402039,349.209503 
	C626.260132,343.430878 616.264404,339.948181 605.933533,337.159088 
	C597.291809,334.826050 597.306213,334.772644 592.434143,342.240814 
	C574.478882,369.764069 546.152161,381.150330 514.085266,373.666931 
	C497.973022,369.906799 484.074768,361.988373 471.908875,350.893219 
	C469.090118,348.322540 466.672577,345.663666 461.958801,347.365234 
	C415.192566,364.247253 371.626221,386.860443 333.824280,419.521606 
	C318.769958,432.528656 305.430817,447.226013 296.387207,465.284210 
	C295.501343,467.053040 293.937469,468.856415 294.441528,470.842590 
	C296.533630,479.085968 296.484894,487.704559 298.994720,495.864655 
	C299.930573,498.907379 301.743347,500.386169 305.015320,500.889587 
	C314.717712,502.382446 324.424622,503.957306 334.009979,506.049072 
	C338.356201,506.997528 340.527802,506.008606 342.817078,502.152527 
	C351.039154,488.303253 363.640900,480.921204 379.621735,481.225342 
	C398.829987,481.590912 412.314789,491.364807 419.388214,509.358429 
	C421.067383,513.630005 423.512024,515.083130 428.067719,514.856262 
	C451.866791,513.671387 475.493683,510.742218 499.153412,508.155731 
	C514.372681,506.492035 529.578552,504.681976 544.761292,502.713257 
	C563.576111,500.273651 582.430969,498.025055 601.140320,494.920776 
	C623.293518,491.245148 645.314331,486.767822 667.381958,482.582214 
	C671.561707,481.789429 675.743469,480.793030 675.689880,474.322723 
M229.913284,862.563904 
	C225.989868,863.306946 222.066467,864.049988 218.143036,864.792908 
	C215.787674,865.238953 214.342041,866.488281 213.799164,868.965210 
	C213.232208,871.552063 213.863785,873.694824 215.858612,875.207031 
	C217.279999,876.284424 219.011642,877.093079 220.728302,877.616943 
	C229.803558,880.386169 238.900635,883.087524 248.021896,885.701538 
	C277.149963,894.049561 306.198517,902.632812 334.754822,912.824341 
	C350.724823,918.523987 366.328491,925.576416 383.247772,928.108765 
	C393.508026,929.644470 402.982239,932.340637 411.146332,939.137390 
	C414.961456,942.313477 419.740295,943.027222 424.852325,942.277466 
	C440.822815,939.935242 456.831055,937.848816 472.828888,935.694519 
	C515.374146,929.965515 557.916992,924.218994 600.469543,918.544495 
	C633.124329,914.189941 665.795105,909.955627 698.452759,905.622437 
	C709.170776,904.200378 719.871033,902.643433 730.577026,901.131348 
	C733.121094,900.772034 735.159241,900.139893 734.036499,896.697571 
	C731.089478,887.662354 727.743835,878.791809 723.707397,870.185181 
	C722.747131,868.137756 721.379822,867.364319 718.937134,867.651062 
	C708.693665,868.853333 698.424927,869.846252 688.156677,870.823547 
	C686.497803,870.981384 684.508606,871.795288 682.880432,869.028076 
	C689.197449,867.877197 695.202881,866.877136 701.166382,865.670105 
	C707.110474,864.467041 713.329651,864.605469 719.293579,862.402527 
	C717.813782,855.554504 714.863464,850.780151 707.911194,848.935608 
	C700.840454,847.059570 693.935303,844.561462 686.949768,842.361084 
	C685.293457,841.839417 683.623657,841.387817 681.716248,839.346313 
	C692.633484,840.782288 702.082458,844.455750 712.313904,846.726685 
	C712.133057,842.708374 709.918823,841.815186 707.134216,841.251953 
	C692.623413,838.317200 678.114502,835.369202 663.638672,832.268494 
	C660.582092,831.613708 658.563354,832.288757 656.982178,834.994080 
	C653.841980,840.366577 649.611328,844.874634 645.059998,849.044556 
	C634.080383,859.104187 617.919495,865.978333 602.288940,855.623230 
	C600.503723,854.440491 598.670959,854.371094 596.576233,854.687988 
	C585.561218,856.354797 574.592773,858.272217 563.518005,859.622681 
	C527.185425,864.053345 490.889465,868.780518 454.465454,872.431458 
	C449.789948,872.900085 445.639069,874.128174 441.787109,877.384766 
	C434.492126,883.552185 425.914551,886.014954 416.170807,884.529175 
	C411.783691,883.860168 407.182587,884.199158 402.713043,884.537109 
	C386.036224,885.797913 369.553802,885.737366 353.126434,881.522766 
	C318.364197,872.604126 295.098236,851.601868 284.034393,817.379822 
	C282.963348,814.067078 281.330200,812.668091 277.931000,813.132568 
	C275.789429,813.425232 273.618500,813.496277 271.465210,813.711060 
	C253.082825,815.544800 234.706100,817.436646 216.318695,819.218201 
	C190.477951,821.721741 164.621872,824.069275 138.789978,826.659363 
	C132.676498,827.272400 126.474327,827.334290 120.475533,828.937744 
	C118.461433,829.476135 116.581398,830.198181 116.308701,832.622803 
	C116.039062,835.020142 118.117462,835.360352 119.583694,836.416138 
	C125.672661,840.800903 132.883499,842.316040 139.773376,844.664246 
	C142.664124,845.649475 145.519699,846.136658 148.546570,844.997498 
	C153.249802,843.227478 158.012100,843.272461 162.654999,845.269958 
	C166.659607,846.992798 172.898041,845.557190 173.241150,852.663818 
	C173.261887,853.093201 174.550629,853.617676 175.323059,853.830750 
	C185.911255,856.751648 196.431168,859.986023 207.269089,861.862183 
	C211.083344,862.522461 214.746674,861.687500 217.930023,857.521362 
	C205.513794,852.610718 192.558823,851.296814 180.869934,846.044922 
	C202.234802,847.056702 221.278961,856.303772 241.376724,861.795044 
	C241.245422,862.342957 241.114120,862.890930 240.982819,863.438843 
	C237.573196,863.107788 234.163574,862.776733 229.913284,862.563904 
M81.497093,545.126648 
	C95.348526,595.431274 117.834602,641.952332 143.614746,687.038147 
	C145.677109,690.644958 147.766479,691.763855 152.028732,689.865967 
	C171.512436,681.190186 191.486511,673.719543 211.764099,667.122620 
	C216.967987,665.429626 222.231308,663.404236 228.299759,662.857239 
	C226.031082,674.377625 223.880814,685.110229 221.825226,695.860962 
	C221.283783,698.692749 219.831818,701.876953 223.650009,703.736145 
	C227.090744,705.411621 230.570496,705.281311 233.440369,702.816345 
	C236.151352,700.487793 239.314163,699.841858 242.563187,699.159912 
	C255.718323,696.398621 268.929382,699.130371 282.113037,698.831482 
	C286.014526,698.743042 287.390869,701.024109 285.875671,704.871521 
	C284.710938,707.828979 284.141541,710.961304 284.097656,714.153687 
	C284.069183,716.224976 284.118225,718.315369 285.939392,719.875854 
	C287.531982,718.385681 287.865814,716.686523 288.238129,715.108337 
	C291.306519,702.101624 295.887177,689.600586 300.705841,677.171265 
	C302.797852,671.775085 301.754028,670.238831 295.823486,670.344543 
	C289.167084,670.463135 282.517975,670.994873 275.861603,671.108643 
	C269.979584,671.209229 269.359314,670.217957 272.154510,665.232056 
	C276.551453,657.389038 280.983978,649.557434 285.685211,641.895081 
	C297.530975,622.588257 309.537598,603.380005 321.471954,584.127441 
	C322.612701,582.287109 323.749390,580.673035 321.915466,578.316650 
	C312.121429,565.731873 304.591949,551.881531 299.220764,536.850647 
	C298.700745,535.395386 298.143311,533.387024 295.980591,533.599182 
	C294.188873,533.774841 293.795990,535.515930 293.391327,536.924866 
	C289.998657,548.737671 278.893250,550.156250 270.220123,542.488770 
	C265.783875,538.567017 262.575165,533.681580 260.047668,528.393555 
	C258.743042,525.664062 256.947998,524.380737 253.906631,524.237610 
	C242.762146,523.712891 231.632812,522.794922 220.484543,522.434692 
	C176.735214,521.020752 133.271454,523.929749 90.121956,531.393311 
	C76.716515,533.712097 78.528885,532.177490 81.497093,545.126648 
M445.738861,583.205017 
	C446.528778,566.929504 440.371368,551.970459 436.007263,535.896729 
	C475.451721,534.684265 513.765137,530.221558 552.096069,525.858154 
	C590.467224,521.490112 628.083984,513.398621 666.208923,502.352814 
	C665.333191,526.656433 660.965271,549.035278 657.048218,572.827759 
	C664.008057,565.316528 667.307861,557.503235 670.646667,549.724182 
	C675.847534,537.606750 676.530457,524.503113 678.648132,511.738159 
	C679.741943,505.145020 681.345703,499.363342 686.772461,494.727936 
	C691.947998,490.307129 696.271423,484.919281 698.793030,478.356506 
	C699.654114,476.115601 699.855164,474.261169 696.900085,472.848694 
	C692.310181,479.791840 688.949341,487.566437 682.403198,493.707764 
	C681.277832,486.344330 681.277405,486.342224 674.349792,487.683380 
	C666.991455,489.107880 659.621887,490.477264 652.278259,491.974121 
	C618.012207,498.958557 583.560059,504.830017 548.855652,509.157501 
	C515.656128,513.297363 482.375854,516.715271 449.072754,519.893433 
	C429.331696,521.777405 409.542999,523.413635 389.746887,520.833679 
	C356.056671,516.442993 322.887726,508.958710 289.344635,503.686676 
	C285.018982,503.006805 280.880157,501.055664 276.368011,501.295715 
	C276.104767,509.132812 276.904938,510.281311 283.965851,510.935211 
	C306.349396,513.008118 328.565491,516.280762 350.701996,520.115112 
	C353.568359,520.611633 356.234467,520.901123 358.892334,519.033630 
	C362.499481,523.671204 367.622437,524.271301 372.521606,523.739868 
	C376.685974,523.288086 380.366974,524.123352 384.251465,525.036194 
	C399.950165,528.725159 412.702484,536.397217 420.708893,550.941284 
	C423.689453,556.355591 426.508850,561.792725 428.412994,567.699097 
	C432.643402,580.821106 429.563293,592.117554 420.699554,602.446899 
	C416.408264,607.447876 412.187714,608.313049 405.888306,606.440369 
	C386.075836,600.550659 366.863739,592.936951 347.180908,586.707703 
	C345.637207,586.219177 344.080048,584.967834 342.086365,585.875854 
	C346.854645,591.857239 352.390015,595.524719 364.454773,600.942810 
	C382.585602,609.085266 401.608521,614.698914 420.433441,620.892212 
	C423.545868,621.916077 425.180115,620.516296 426.883270,618.644836 
	C432.747406,612.201416 437.708771,605.149170 441.423065,597.224731 
	C442.208130,595.549744 442.522430,593.262146 444.937988,592.775757 
	C447.271637,593.967346 446.218933,595.607971 445.480438,597.013123 
	C443.701721,600.397400 441.884888,603.770081 439.897614,607.034302 
	C436.568787,612.502197 432.246063,617.250183 427.702515,622.276733 
	C429.356415,622.916443 430.256104,623.359985 431.206177,623.617981 
	C460.226318,631.500488 489.589447,637.242493 519.824402,636.801331 
	C564.905823,636.143433 604.816711,622.004700 639.604004,592.611206 
	C651.499023,582.560547 654.415771,569.861633 656.760376,556.310364 
	C658.116943,548.469971 658.733704,540.483643 660.133850,532.618652 
	C661.635193,524.185242 663.143250,515.732788 662.619629,506.182526 
	C589.557922,528.518616 514.823059,534.050415 439.432434,538.493652 
	C442.239990,547.394348 445.936981,555.056885 447.945374,563.311646 
	C449.980682,571.677307 449.767578,579.836243 448.513824,588.723755 
	C445.384216,587.148682 445.897125,585.491882 445.738861,583.205017 
M819.092346,626.287354 
	C814.930420,617.735474 811.534241,608.884399 808.583984,599.846130 
	C805.843567,591.450623 803.056824,583.060791 797.775085,575.793457 
	C794.735413,571.610901 790.940491,568.447937 785.811401,567.333435 
	C777.605713,565.550476 770.072083,569.938782 766.466614,578.685120 
	C761.612549,590.460205 761.609131,602.682312 763.400452,615.059265 
	C765.585266,630.155518 770.650818,643.743225 782.853638,653.819641 
	C795.206543,664.020020 798.884766,677.517456 796.921509,692.810425 
	C794.019714,715.414062 797.544189,736.593506 809.886841,756.028015 
	C812.781128,760.585266 815.565125,765.212585 818.399902,769.807678 
	C809.005188,764.488525 803.119568,755.735413 795.590820,747.391846 
	C795.310791,750.577087 795.176147,752.556885 794.956970,754.527283 
	C793.818787,764.756836 791.067200,768.065735 780.905334,770.479126 
	C776.719421,771.473267 772.369629,771.973022 768.066833,772.222107 
	C764.100403,772.451660 763.528320,774.480042 764.682068,777.506897 
	C765.316711,779.171753 766.472168,780.703308 767.635559,782.091492 
	C782.936279,800.348450 802.757568,812.043457 824.603333,820.493652 
	C834.002075,824.129089 843.821411,826.168396 849.773193,835.854431 
	C852.596191,840.448669 855.772583,839.570312 858.028564,834.254028 
	C862.095886,824.669250 868.471191,816.901428 876.059387,809.990967 
	C882.707825,803.936523 889.411011,797.941772 896.032898,791.858521 
	C906.848511,781.922791 917.348511,771.696777 924.695801,758.761169 
	C927.538025,753.757080 929.462769,748.473877 928.798401,742.570496 
	C928.397644,739.008972 926.928406,736.341492 922.869446,735.628296 
	C920.562561,741.075073 919.560974,746.733459 916.664429,751.655823 
	C913.897583,756.357788 911.662292,761.443787 906.743530,764.719421 
	C914.934448,751.266541 920.711060,737.889038 907.726868,722.492188 
	C907.337158,732.071716 905.856140,740.100403 900.583496,747.700500 
	C900.133423,746.293579 899.850830,745.830261 899.857605,745.371216 
	C900.327637,713.599976 893.949219,682.834045 886.146851,652.287903 
	C877.747803,619.406067 865.336670,588.006897 850.931580,557.342896 
	C845.120605,544.972961 838.858948,532.841187 832.226868,520.899170 
	C830.100952,517.071045 817.916016,515.292847 817.123352,518.719299 
	C815.963989,523.731506 812.216614,527.534363 812.124390,533.105347 
	C812.002075,540.488342 813.913330,547.880371 811.452454,555.335205 
	C808.094055,565.508667 808.052429,575.576111 814.522644,584.962219 
	C816.180603,587.367432 817.925537,590.405884 817.360413,593.345642 
	C815.476929,603.142639 821.807190,609.974304 824.795410,618.384949 
	C838.061462,607.062988 850.512573,602.052063 856.352966,605.844421 
	C849.287903,608.550537 842.304993,610.659912 836.078857,614.572205 
	C825.232544,621.387634 825.245911,621.230530 832.354126,632.226074 
	C834.700928,635.856262 837.308167,637.923218 841.992493,637.907715 
	C849.235413,637.883606 856.137634,639.926025 862.455078,643.608093 
	C863.908264,644.454956 865.720215,645.081360 866.060974,647.631592 
	C858.928711,646.375671 852.258179,643.779114 844.269348,645.098389 
	C850.454712,651.901184 858.565613,654.478149 864.802979,660.376831 
	C862.265503,661.694519 860.316223,661.393799 858.434814,660.945923 
	C850.877563,659.147095 843.966797,656.068848 838.032776,650.888489 
	C830.262390,644.104858 824.335815,635.935059 819.092346,626.287354 
M735.949097,774.311951 
	C737.029236,768.917175 733.416321,767.195068 729.376526,765.383362 
	C714.405518,758.669434 712.112793,754.868958 715.998047,739.187500 
	C717.954346,731.291687 717.024658,724.514465 713.209473,717.719177 
	C711.742798,715.106812 710.480713,712.379639 709.014954,709.766724 
	C696.978516,688.309998 699.519653,669.995422 717.182739,652.874939 
	C720.091370,650.055664 720.743225,647.838928 719.087585,643.811340 
	C713.030212,629.076538 710.829468,613.677124 713.797607,597.886108 
	C714.397522,594.694702 714.584595,592.167358 712.631226,589.495361 
	C711.164551,587.489136 709.993408,585.252136 708.818604,583.049622 
	C701.620117,569.553406 703.688049,554.935059 714.388672,543.957703 
	C721.604492,536.555237 730.291443,531.358337 739.846680,527.619873 
	C747.096313,524.783447 747.261536,524.472412 742.150574,518.844299 
	C737.638855,513.876038 736.952209,503.759705 741.789734,499.654816 
	C745.810913,496.242615 746.238892,492.185181 746.594910,487.760132 
	C746.928162,483.617523 746.597412,479.434906 747.502380,475.320404 
	C748.361267,471.415649 747.064270,469.099426 743.137268,467.166382 
	C729.102661,460.257812 715.129578,453.218323 704.318726,441.288818 
	C700.216553,436.762085 694.790894,433.501160 690.662659,428.878296 
	C689.795471,427.907288 688.744995,426.925507 686.940369,427.806244 
	C686.841614,428.261078 686.456970,428.948486 686.612183,429.477539 
	C689.940735,440.826141 693.254272,452.225677 700.757507,461.701599 
	C705.894348,468.188873 707.829468,475.194153 705.239624,483.167450 
	C704.338440,485.941956 704.267822,488.720673 704.446655,491.555420 
	C705.606384,509.944885 700.228271,526.476135 689.559265,541.216431 
	C683.284851,549.885071 676.746155,558.120056 671.663696,567.801575 
	C661.257996,587.622925 644.853271,602.391113 626.311829,614.768005 
	C621.100220,618.246948 621.159546,618.399353 625.573242,622.713440 
	C639.832581,636.650696 650.957642,652.746948 657.977478,671.415833 
	C666.860779,695.040405 668.559326,718.703247 656.789124,742.091370 
	C655.058105,745.531006 652.952087,748.212524 649.090454,749.350708 
	C647.475708,749.826721 645.387146,750.320312 645.804626,752.916870 
	C646.833008,753.876831 648.112854,753.944641 649.084656,753.352722 
	C653.201477,750.845520 657.465698,751.281555 662.046936,751.692444 
	C669.975098,752.403625 672.550476,753.900757 675.104248,761.402527 
	C678.104309,770.215332 677.530396,779.145691 675.779419,788.058350 
	C673.622498,799.036987 670.460083,809.703918 665.422668,819.758606 
	C664.297974,822.003479 662.826416,824.773560 666.866394,825.567993 
	C679.928467,828.136414 693.029724,830.505371 706.115295,832.954468 
	C708.849426,833.466125 710.586853,832.930908 710.719360,829.586914 
	C711.081177,820.455872 715.234741,813.057129 721.523438,806.651489 
	C726.305359,801.780518 730.999634,796.821167 735.645813,791.820129 
	C738.756470,788.471863 740.934509,784.980408 737.506958,780.363953 
	C736.496216,779.002502 736.467834,776.911743 735.949097,774.311951 
M354.827820,345.287903 
	C372.659576,333.066559 392.003662,323.470917 411.403900,313.555634 
	C410.239960,311.657715 409.535767,310.343933 408.679901,309.137817 
	C380.691101,269.694031 349.418579,233.413010 310.677917,203.862015 
	C274.381165,176.175232 234.877853,155.054276 191.134308,141.964386 
	C186.263657,140.506897 181.297073,139.136322 176.088516,139.296616 
	C204.535492,145.622910 230.585663,157.518173 255.309738,172.657547 
	C259.423401,175.176498 260.453644,177.791275 258.165375,182.007401 
	C252.502701,192.440796 248.453156,203.523758 245.003647,214.863205 
	C239.107040,234.246902 235.997528,254.065338 235.340164,274.287903 
	C235.248215,277.116547 235.090652,280.090546 237.060745,282.419556 
	C241.782349,288.001343 246.562256,293.556366 252.315567,298.127747 
	C261.168396,305.161865 270.144897,311.997925 279.536713,318.350067 
	C297.264648,330.340393 315.768768,340.600250 335.834229,348.232666 
	C343.001251,350.958801 348.760193,351.447662 354.827820,345.287903 
M666.666565,114.175552 
	C679.083557,102.959732 692.130798,92.571899 707.977844,83.733406 
	C704.039185,83.811981 702.063904,85.077202 700.080139,86.184792 
	C690.453735,91.559700 681.452209,97.906754 673.084656,105.025963 
	C651.951599,123.006142 633.139954,143.161636 617.052246,165.837524 
	C600.615356,189.005569 586.121887,213.236572 575.618958,239.719147 
	C574.569641,242.365158 573.466064,244.832581 575.968445,247.526489 
	C587.013489,259.416962 594.938843,273.161987 599.842468,288.639832 
	C600.605530,291.048218 602.107483,292.417267 604.667542,293.110840 
	C615.512024,296.048706 625.436829,301.175049 635.247375,306.497833 
	C640.432068,309.310822 643.542358,308.875031 647.284302,304.276703 
	C659.734680,288.977173 670.173340,272.361877 679.419128,254.973923 
	C683.111389,248.030045 686.250061,241.061676 685.756897,232.754059 
	C684.796570,216.577591 682.638794,200.629456 678.192139,185.041275 
	C672.872986,166.394089 663.631287,149.697006 652.259888,134.126678 
	C650.667480,131.946243 649.880310,130.393295 652.224304,128.201324 
	C656.955872,123.776695 661.482544,119.132996 666.666565,114.175552 
M481.290741,246.817322 
	C470.531464,261.292938 469.250641,277.566498 472.944153,294.443970 
	C480.285950,327.992523 510.597931,354.380676 545.279541,356.316742 
	C561.979126,357.248932 576.934631,351.348297 586.956482,336.968109 
	C597.511963,321.822296 597.198730,305.138824 592.524780,288.096283 
	C591.764343,285.323273 590.030823,284.738861 587.268982,284.845276 
	C577.116333,285.236328 567.010132,285.988953 556.909485,287.124756 
	C553.195007,287.542450 551.398682,288.221680 551.031921,292.508209 
	C550.334656,300.656738 542.659668,304.944580 534.903076,302.261444 
	C529.479797,300.385437 526.209595,296.435242 523.614075,291.562134 
	C520.768860,286.220154 522.196777,281.608673 525.502014,277.168884 
	C528.531799,273.099182 532.748596,272.932678 537.222351,273.650116 
	C541.389771,274.318420 544.452759,276.749420 547.309326,279.686432 
	C552.080383,284.591736 554.409851,285.125946 560.539490,282.325775 
	C563.602844,280.926361 566.623169,280.554962 569.764038,281.266510 
	C573.891357,282.201538 578.040405,282.089111 582.201904,281.961578 
	C588.832886,281.758423 589.898743,280.330688 586.889954,274.510498 
	C575.702820,252.870117 558.776245,237.659531 534.949219,231.742722 
	C514.908691,226.766159 496.164764,229.307861 481.290741,246.817322 
M735.991333,910.630493 
	C735.700867,906.047668 732.342957,907.034973 729.688171,907.396973 
	C706.439941,910.567200 683.186401,913.674438 659.902100,916.588806 
	C626.059509,920.824890 592.303406,925.751404 558.507019,930.358459 
	C531.959351,933.977417 505.398376,937.499512 478.858948,941.177246 
	C461.708771,943.553833 444.591095,946.163818 427.449799,948.605713 
	C421.638977,949.433411 415.899872,949.470032 410.156006,947.601257 
	C406.964417,946.562927 404.947906,944.189270 402.368134,942.462158 
	C395.922211,938.146973 388.709229,938.896484 381.555145,939.656372 
	C374.075745,940.450806 366.573090,940.735535 359.112610,939.902161 
	C356.339142,939.592224 352.515503,939.444885 352.025208,935.619019 
	C351.597168,932.278870 355.021759,931.691895 357.217834,930.352234 
	C357.381256,930.252625 357.339874,929.817200 357.452942,929.230591 
	C344.349182,925.121338 331.481232,919.720886 317.137024,921.679138 
	C317.244507,923.905273 319.438141,924.563538 318.591888,926.761353 
	C314.692413,928.138306 310.667725,927.147156 306.708221,926.115234 
	C287.702026,921.161926 268.710571,916.151733 249.721405,911.133179 
	C220.921234,903.521790 192.119629,895.915527 163.343201,888.215210 
	C160.662918,887.497986 157.469437,887.428833 155.424988,884.076843 
	C163.590271,881.493469 171.650589,880.391357 179.628754,878.970276 
	C186.349396,877.773193 193.096466,876.884705 199.965408,876.764526 
	C205.237885,876.672302 207.522369,874.399475 206.592834,870.935364 
	C205.394226,866.468323 201.642258,868.263123 199.080917,868.554749 
	C174.775177,871.322083 150.494751,874.312500 126.209808,877.261475 
	C121.679306,877.811646 120.163559,880.161011 121.943642,884.330261 
	C123.279137,887.458313 125.355202,890.200562 129.083984,890.678406 
	C135.841110,891.544373 141.812714,895.763306 148.915375,895.195190 
	C150.429520,895.074097 151.579193,896.455566 152.915909,897.051819 
	C158.327454,899.465454 163.832123,903.477905 169.311569,903.492615 
	C176.844971,903.512878 183.703857,905.451477 190.725098,907.079224 
	C196.836700,908.496033 203.220398,909.908325 208.611389,912.896606 
	C212.965164,915.309875 217.090530,917.406799 221.963562,917.415466 
	C231.882034,917.433105 240.361801,922.749573 249.783554,924.673584 
	C255.544495,925.850037 262.233765,926.424805 265.230347,933.217224 
	C265.536621,933.911499 266.891571,934.322021 267.833344,934.527344 
	C273.141541,935.684692 278.234955,937.728271 283.997009,936.135376 
	C287.998260,935.029297 292.055389,936.244934 296.102386,937.857300 
	C301.980927,940.199219 306.028076,946.643311 313.421661,945.593811 
	C313.986237,945.513672 314.857269,946.418274 315.326355,947.055969 
	C316.825470,949.094238 319.061310,949.800720 321.278595,950.492188 
	C329.704041,953.119629 338.133698,955.735901 346.594269,958.247070 
	C350.420074,959.382568 354.441559,960.910034 358.346832,959.501953 
	C368.050842,956.003113 378.168915,954.627319 388.277008,954.488708 
	C399.857697,954.329895 411.319702,952.135803 423.106537,954.027100 
	C430.287506,955.179321 438.271484,952.967102 444.722717,949.343018 
	C448.866913,947.014832 452.254913,946.224854 456.287811,947.783386 
	C474.160156,954.690125 491.423706,948.415466 508.850067,945.541382 
	C514.844482,940.091736 522.028687,941.857971 528.848877,942.589966 
	C536.005859,943.358093 543.457031,942.956055 549.441406,940.037170 
	C557.456543,936.127747 565.633240,936.197144 573.684326,936.203125 
	C583.408691,936.210388 592.990662,935.340576 602.508240,934.010864 
	C621.638245,931.338196 640.748962,928.582275 659.968567,926.597839 
	C665.082397,926.069824 670.874573,926.119568 675.018921,923.655884 
	C680.650024,920.308350 686.304138,919.509644 692.140686,920.200989 
	C705.294312,921.759033 717.977539,918.424255 730.872192,917.379272 
	C734.421387,917.091614 736.345520,915.217224 735.991333,910.630493 
M411.669464,360.131653 
	C427.069366,352.738678 442.986298,346.582611 460.664856,340.574615 
	C455.997131,338.262390 459.218323,335.169586 457.698853,332.822021 
	C453.205170,325.879150 450.717102,318.117096 448.482758,310.251801 
	C447.636688,307.273438 445.752686,306.859619 443.093262,307.913208 
	C438.451691,309.752075 433.691589,311.308716 429.116089,313.294525 
	C402.003021,325.061737 376.108124,339.102295 351.819244,355.946564 
	C326.759399,373.325531 304.421692,393.650574 286.210510,418.305328 
	C275.875977,432.296509 273.510834,448.027649 275.517242,464.790314 
	C275.703217,466.343994 275.857239,468.143005 277.702332,469.034637 
	C281.065643,467.797791 280.256348,463.199188 283.774689,461.279938 
	C282.734009,466.555145 280.905579,471.244110 283.393005,476.792847 
	C287.008362,471.858948 287.846893,466.664886 290.119812,462.149323 
	C298.167328,446.161346 309.666626,432.740265 322.413788,420.482239 
	C348.467957,395.427856 379.149597,377.045654 411.669464,360.131653 
M466.671997,779.233704 
	C466.257141,777.371033 466.373199,775.140320 463.201111,774.726196 
	C459.577148,782.825134 460.996948,792.757751 454.824280,800.240784 
	C453.067230,798.146118 454.382507,796.460571 454.800720,794.830383 
	C456.125397,789.666504 457.305573,784.464844 457.437622,779.132629 
	C457.531281,775.352051 457.877502,770.225647 453.111664,769.771057 
	C448.205902,769.303040 447.932129,774.564636 447.319275,778.196350 
	C446.180481,784.944824 444.826355,791.614685 442.234497,797.966492 
	C441.491302,799.787781 440.963226,801.956360 438.453400,802.778809 
	C437.815430,800.644958 438.702240,799.172852 439.150238,797.605652 
	C440.697205,792.194458 443.117767,786.995605 442.958069,781.166504 
	C442.890350,778.693665 442.418060,776.510742 440.229187,775.095276 
	C437.888428,773.581543 436.095215,775.217529 434.337402,776.375671 
	C429.218109,779.748352 425.577728,784.544983 422.442749,789.653137 
	C414.432037,802.705750 409.105988,816.891663 406.625977,831.949219 
	C404.655762,843.911438 403.098297,856.024963 407.905212,867.895691 
	C410.247650,873.680298 414.257751,876.414429 420.387573,876.906067 
	C431.058044,877.761902 438.014282,871.885498 443.778656,864.148376 
	C452.404907,852.569946 456.714081,839.159241 459.738861,825.202271 
	C461.322205,817.896301 460.847107,810.277222 463.536835,803.148743 
	C466.334473,795.734192 467.293640,788.001709 466.671997,779.233704 
M825.023254,510.131927 
	C832.501709,509.675842 839.989197,509.330841 847.455933,508.729462 
	C853.757507,508.221893 860.046021,507.502960 866.318176,506.703491 
	C869.045044,506.355865 871.253784,504.978058 872.280334,502.605652 
	C871.966614,500.707245 869.287415,500.823425 869.976257,498.757385 
	C879.030212,495.993042 881.665710,491.727142 879.993103,481.954285 
	C876.764954,463.091675 873.285339,444.271423 870.158081,425.392517 
	C868.911316,417.866028 867.782288,410.343201 865.616272,403.016663 
	C865.820068,407.175507 866.189880,411.301270 866.887268,415.370880 
	C870.708862,437.670044 874.705139,459.939667 878.433899,482.254120 
	C879.742859,490.087738 876.493469,493.812683 868.564697,494.272522 
	C857.430481,494.918274 846.294006,495.541321 835.152466,496.038391 
	C822.569580,496.599731 819.824585,494.454559 816.834045,482.149475 
	C816.676880,481.502747 816.576538,480.842102 816.453491,480.187286 
	C808.977112,440.421112 802.841309,400.436615 797.064819,360.396271 
	C796.426392,355.970703 796.049927,351.410065 796.900818,346.950165 
	C797.437134,344.139618 798.344666,341.278656 802.170349,341.491089 
	C810.734619,341.966675 819.282654,341.524841 827.868347,343.202820 
	C835.368591,344.668579 843.230469,344.283661 851.581970,344.752838 
	C850.010254,340.901764 847.510925,339.590088 844.707642,339.368530 
	C830.281982,338.228485 815.844116,337.231781 801.402405,336.312714 
	C798.128723,336.104370 796.211487,338.189209 795.214417,341.147034 
	C793.729248,345.552979 794.221191,350.035797 794.834839,354.496918 
	C796.580444,367.187378 798.507141,379.854187 800.127319,392.560303 
	C803.874939,421.951782 808.076477,451.273254 813.538452,480.398468 
	C815.109741,488.777252 817.000183,497.152863 824.887451,502.362610 
	C825.114929,502.512878 824.976257,503.217529 825.011902,503.714264 
	C822.162598,504.701996 820.439026,502.852203 818.719543,501.436035 
	C813.784790,497.371490 812.065125,491.477417 810.827820,485.656219 
	C805.738647,461.712891 802.280151,437.468781 799.059021,413.234863 
	C795.741882,388.279480 791.282349,363.430634 789.951538,338.189148 
	C784.385986,338.030365 779.869934,341.092346 778.251221,346.418549 
	C776.363770,352.628876 776.670959,359.065338 777.490051,365.276489 
	C781.384033,394.800842 784.373474,424.450897 789.415100,453.818176 
	C791.666199,466.930695 794.032166,480.025696 796.566284,493.085876 
	C797.189270,496.296356 797.908447,499.785004 802.346008,502.587372 
	C799.313538,493.168274 797.675659,484.753632 796.502319,476.215546 
	C795.347595,467.812805 793.353577,459.533051 792.983704,451.008026 
	C792.620483,442.636627 788.925415,434.547791 790.581360,425.975555 
	C791.346436,427.007111 791.751770,428.082916 791.929993,429.195160 
	C793.745972,440.530762 795.341125,451.905334 797.367798,463.202637 
	C799.275391,473.836060 799.716309,484.750427 803.119385,495.095184 
	C807.270020,507.712158 812.097839,511.099426 825.023254,510.131927 
M628.093933,851.730713 
	C632.910522,849.661194 637.036621,846.618286 640.661316,842.856445 
	C656.513733,826.404114 664.184814,806.045166 668.432251,784.136414 
	C668.976074,781.331421 670.583679,776.755554 667.055847,775.710327 
	C662.874817,774.471680 662.504333,779.489136 661.007324,782.261047 
	C659.550842,784.957825 659.267883,788.523560 655.274597,790.095764 
	C656.116516,781.300537 664.812317,774.623169 660.432373,764.862183 
	C651.261169,772.452576 647.824951,783.916260 639.869934,792.992432 
	C639.085999,789.776917 640.258057,788.485840 641.048035,787.083740 
	C645.377075,779.400635 649.587585,771.648865 655.313599,764.849365 
	C656.438538,763.513489 657.942383,761.480347 655.854736,760.087646 
	C653.877502,758.768616 652.651733,760.825439 651.537964,762.290771 
	C649.898560,764.447815 648.708130,767.106628 645.745789,767.990967 
	C644.763367,766.153503 646.888855,764.599670 645.552063,762.874756 
	C643.264526,761.487000 641.621826,763.245300 639.913635,764.438843 
	C634.272400,768.380554 629.393616,773.111694 625.308167,778.666138 
	C612.606934,795.934082 604.154785,814.873230 603.334534,836.574890 
	C602.953247,846.661377 607.998779,851.880310 618.057739,853.191284 
	C621.287659,853.612244 624.330627,852.872131 628.093933,851.730713 
M786.731262,752.312500 
	C787.003540,747.829712 787.209839,743.341736 787.563049,738.865295 
	C788.127197,731.715759 787.420959,724.736023 783.248474,718.759583 
	C780.837524,715.306396 780.400818,711.918335 780.908997,707.996094 
	C781.934387,700.082153 782.749634,692.141357 783.711426,684.218872 
	C784.556396,677.259155 784.028442,671.184875 778.712769,665.358276 
	C771.827209,657.810852 765.681152,649.438843 761.604492,639.846375 
	C761.062134,638.570190 760.359253,637.353088 758.681274,637.741821 
	C756.919617,638.149841 754.939514,638.394165 754.312805,640.539612 
	C753.712097,642.596130 752.495422,644.480835 752.682251,646.767395 
	C752.800354,648.212219 752.304993,649.792358 750.690430,649.666748 
	C746.535522,649.343445 746.349365,652.388672 745.586731,655.081482 
	C744.303040,659.614319 745.314270,663.985413 746.407043,668.371948 
	C747.409912,672.397522 748.767212,676.343201 748.734314,680.588806 
	C748.637695,693.035034 751.246582,704.349854 762.064636,712.249512 
	C763.657288,713.412354 764.991638,714.978394 766.282593,716.496399 
	C773.119934,724.535950 772.420776,735.841797 764.700623,743.049072 
	C759.301270,748.089722 753.160767,749.831482 745.835510,748.010620 
	C742.292297,747.129822 738.915405,744.794495 734.827087,745.828369 
	C735.160889,751.490234 738.450317,753.769653 743.328796,754.882629 
	C746.808838,755.676514 751.067993,755.508545 753.132629,759.048462 
	C755.324463,762.806396 758.591553,763.621033 762.361938,763.810486 
	C767.865173,764.086975 773.337158,763.943054 778.764221,762.766724 
	C786.014709,761.195129 786.582031,760.589417 786.731262,752.312500 
M843.015137,406.043213 
	C844.436768,420.213409 846.939392,434.284760 847.455627,448.483307 
	C845.090515,449.660797 843.069763,449.359283 841.111633,449.437927 
	C834.130981,449.718292 827.151306,450.088501 820.167664,450.195740 
	C817.026672,450.243988 815.916016,451.617279 816.396240,454.512787 
	C818.164978,465.176697 820.018433,475.822052 823.375610,486.138947 
	C824.675598,490.133911 827.148926,492.048676 831.536377,491.846344 
	C842.334656,491.348450 853.144836,491.110931 863.949524,490.748688 
	C874.179016,490.405701 876.156311,487.970734 874.512695,477.801819 
	C874.459656,477.473480 874.384888,477.148590 874.319275,476.822296 
	C869.436707,452.528412 865.138672,428.136536 861.648254,403.598358 
	C861.103271,399.766937 861.008301,395.707031 859.171631,392.014160 
	C857.019592,392.549408 855.184265,393.191010 853.138489,393.187347 
	C847.907410,393.177979 842.483398,399.719299 843.015137,406.043213 
M884.599182,809.107422 
	C876.492676,816.345825 868.967041,824.052856 864.144287,833.999390 
	C860.265808,841.998291 861.093689,849.123535 866.710449,855.256409 
	C871.284668,860.250732 876.015808,860.668152 880.956055,856.065186 
	C885.089417,852.214050 888.879700,847.992798 892.793457,843.908203 
	C905.585510,830.557556 918.098022,816.973206 927.610535,800.968445 
	C935.493530,787.705627 940.572266,773.625732 939.648010,757.906921 
	C939.413696,753.923218 938.950256,749.916199 934.574768,747.994080 
	C932.856018,749.101196 932.589600,750.859680 932.029358,752.353516 
	C929.128235,760.089600 924.425537,766.719727 919.555908,773.278992 
	C909.657593,786.612061 896.983154,797.222534 884.599182,809.107422 
M366.321411,574.381592 
	C348.749390,565.095398 339.200623,550.279236 336.763519,530.810913 
	C336.133423,525.777222 333.928802,523.598511 328.940399,523.165344 
	C322.488983,522.605225 316.085663,521.480591 309.666199,520.567017 
	C304.631531,519.850586 303.809875,520.644043 305.183044,525.442810 
	C308.308746,536.365967 312.806030,546.713806 318.193665,556.719910 
	C324.542450,568.511047 332.481079,576.960388 346.752686,580.417297 
	C367.227997,585.376892 387.020203,593.154480 407.110138,599.710266 
	C409.468597,600.479919 411.710510,601.353210 414.135864,599.365662 
	C423.785034,591.458252 424.689178,570.562683 415.381714,561.864014 
	C402.705841,578.953430 386.110321,581.697327 366.321411,574.381592 
M782.253174,466.396179 
	C785.711670,465.870697 784.113159,463.280518 783.897156,461.683929 
	C781.800171,446.185730 778.803345,430.771576 777.497437,415.213043 
	C775.602722,392.640076 769.878113,370.340698 771.984802,347.452148 
	C763.771423,347.746368 761.813965,349.501892 762.006592,357.507874 
	C762.310852,370.152771 761.431458,382.829010 763.005127,395.446777 
	C763.190186,396.930817 763.699097,398.801117 761.867004,399.875519 
	C760.421448,399.404785 760.132812,398.154816 760.065308,397.066406 
	C759.260681,384.084900 754.728943,371.629639 754.654846,358.544495 
	C754.644836,356.783600 755.048828,354.414337 752.897461,353.771729 
	C750.559692,353.073456 748.314270,354.270233 746.540833,355.865234 
	C745.187073,357.082703 745.286438,358.893005 745.352356,360.560120 
	C745.602234,366.881378 745.923462,373.199829 746.169067,379.521240 
	C746.796875,395.676392 748.212524,411.757019 751.423462,427.614838 
	C753.634705,438.535461 755.556274,449.636169 762.899292,458.694122 
	C764.428467,460.580383 765.612183,463.014435 768.930420,462.421814 
	C769.832214,457.989777 766.164612,453.967041 767.817200,448.036133 
	C769.585144,452.079254 771.207886,454.789673 771.956726,457.723206 
	C773.279053,462.902985 776.219482,465.838379 782.253174,466.396179 
M706.335205,411.867981 
	C706.914246,414.049438 708.140869,415.876404 709.931213,417.144440 
	C714.405090,420.313080 717.332458,424.721008 720.249695,429.210144 
	C721.690735,431.427795 723.341553,433.608612 725.284363,435.382446 
	C731.559143,441.111694 737.082214,447.652863 743.482239,453.152985 
	C747.580444,456.674896 753.226807,458.395355 758.179138,460.923431 
	C752.275146,448.409149 747.375549,436.227844 745.689026,423.031738 
	C743.136292,403.057281 740.947815,383.036377 738.523193,363.045074 
	C738.302795,361.227631 739.938110,358.657745 737.342529,357.702240 
	C734.939148,356.817566 732.815552,358.435150 731.027161,359.927399 
	C723.995422,365.794861 717.075012,371.796051 710.032898,377.650940 
	C707.444824,379.802673 705.990356,382.401642 705.626038,385.726471 
	C704.696716,394.206757 704.588989,402.662048 706.335205,411.867981 
M832.014832,446.536835 
	C836.092712,446.283875 840.170593,446.030914 844.539551,445.759888 
	C843.026062,434.488403 841.602417,423.647369 840.108276,412.816010 
	C838.017090,397.656281 835.736877,382.520874 833.830627,367.338287 
	C833.212402,362.414368 831.642456,359.819519 826.096130,360.163361 
	C821.316833,360.459625 816.476562,359.627075 811.657715,359.488708 
	C808.753662,359.405334 805.744019,358.541504 802.854431,360.017456 
	C802.854431,361.140320 802.739258,362.129730 802.872131,363.084656 
	C804.315125,373.455872 805.955688,383.802246 807.231750,394.193512 
	C809.197510,410.201263 812.434021,426.001190 814.734131,441.948700 
	C815.286133,445.775848 816.950317,447.015045 820.610168,446.732788 
	C824.087463,446.464569 827.597168,446.615540 832.014832,446.536835 
M386.160980,574.993103 
	C396.339813,573.421204 405.599365,570.241577 411.350830,560.789795 
	C412.623657,558.697998 413.759888,556.459290 412.153503,554.284851 
	C407.519836,548.012512 403.318878,541.023438 395.580597,538.154480 
	C379.253571,532.101257 362.027344,529.886597 344.961914,527.076599 
	C340.826721,526.395691 339.663666,528.509216 340.381317,532.411499 
	C341.384033,537.863831 342.967072,543.138611 345.467834,548.034058 
	C353.761932,564.270386 366.047607,574.805054 386.160980,574.993103 
M711.161621,679.692932 
	C709.392944,686.134521 710.544434,692.348633 713.361023,698.126221 
	C717.437683,706.488220 721.647949,714.823486 726.430298,722.792725 
	C731.754456,731.664856 739.577148,737.808716 749.795898,740.277649 
	C757.802612,742.212158 764.466614,736.171753 763.821228,727.965149 
	C763.434692,723.050537 760.614868,719.405762 756.904663,716.872498 
	C748.592163,711.196655 744.791199,703.151367 741.410583,693.919495 
	C737.094543,682.133240 733.562805,670.744202 736.554138,658.135559 
	C736.975830,656.358093 737.389526,653.927063 735.262451,652.670288 
	C733.233093,651.471313 731.393188,652.820984 729.703735,653.826355 
	C720.043091,659.575378 714.137573,668.109192 711.161621,679.692932 
M744.040344,614.625488 
	C750.008301,616.485474 754.286499,615.291443 754.526428,611.071655 
	C755.206848,599.103210 757.580505,586.793762 748.809143,576.247925 
	C745.275024,571.998840 744.298279,566.814941 744.602905,561.254150 
	C744.975464,554.451660 744.879456,547.624573 745.049683,540.809631 
	C745.144226,537.022156 743.936890,535.390320 739.999878,537.224609 
	C732.855957,540.552979 726.246826,544.692505 720.681519,550.286560 
	C713.293945,557.712402 711.523376,567.275024 715.800293,576.855103 
	C719.071594,584.182617 723.572144,590.881348 728.729492,596.922791 
	C733.647461,602.683777 737.118835,609.679077 744.040344,614.625488 
M447.656952,295.966858 
	C447.451599,283.169708 452.490265,271.749298 457.751221,260.148224 
	C456.495758,259.826874 455.863373,259.471069 455.286438,259.545410 
	C435.865143,262.048279 417.048645,266.673950 399.312866,275.249237 
	C395.374054,277.153656 396.389526,279.492249 398.138611,282.024414 
	C403.084778,289.184906 406.787109,296.992096 410.285278,304.914307 
	C411.407837,307.456482 412.213806,310.173096 414.308502,312.710175 
	C424.123169,307.856934 434.410187,304.588928 444.520508,300.852722 
	C446.485291,300.126617 447.508820,298.859467 447.656952,295.966858 
M393.228851,487.155975 
	C374.687927,481.125458 357.404205,486.668152 346.071594,502.278778 
	C343.345886,506.033356 344.070557,507.969971 348.655365,508.661652 
	C356.047119,509.776855 363.407166,511.047668 370.768982,512.341431 
	C377.775726,513.572754 384.852753,514.904114 392.044708,514.760193 
	C395.829681,514.684448 397.947632,513.022156 396.213104,509.075165 
	C394.209534,504.516022 396.568176,504.102600 400.240845,503.879578 
	C403.912781,503.656555 407.609711,505.215149 411.900238,503.895874 
	C407.243622,496.373566 401.901947,490.518494 393.228851,487.155975 
M289.263855,662.073425 
	C293.590240,661.935669 297.920135,661.626282 302.241943,661.714050 
	C305.760529,661.785583 307.743774,660.304871 309.061646,657.107910 
	C311.153137,652.034241 313.478241,647.050903 315.859894,642.104126 
	C322.576294,628.153687 329.389893,614.250061 336.114288,600.303467 
	C337.006958,598.451965 338.777649,596.461975 336.637695,594.407593 
	C334.535248,592.389343 332.790985,589.867310 329.617157,588.614075 
	C314.410187,613.010986 299.321228,637.218628 284.334930,661.261536 
	C285.864929,663.098938 287.189484,662.429932 289.263855,662.073425 
M781.806641,884.865662 
	C777.949585,883.760864 773.986389,883.375488 770.011841,882.935425 
	C762.900574,882.148132 762.866089,882.036560 761.376648,889.185730 
	C759.882385,896.358032 757.057739,902.491333 749.559326,905.218323 
	C746.674744,906.267334 747.399902,908.531982 747.772766,910.664124 
	C748.196045,913.084290 749.681030,914.018738 752.053223,913.730469 
	C766.243225,912.006287 780.519409,910.908997 794.578552,908.230835 
	C800.643616,907.075378 802.479370,904.629150 802.665588,898.672119 
	C802.856628,892.560547 800.830200,889.394653 795.273254,887.867432 
	C791.115356,886.724731 786.847595,885.981995 781.806641,884.865662 
M785.017944,475.553192 
	C784.229187,473.487244 782.364136,473.261719 780.553711,472.940460 
	C775.816528,472.099945 771.077393,471.270721 766.343323,470.413177 
	C760.667969,469.385071 758.177246,470.917389 757.268738,476.643005 
	C756.255188,483.031097 755.617188,489.479004 754.828979,495.902527 
	C754.462585,498.888031 755.676941,500.833252 758.356567,502.354309 
	C766.757812,507.123230 776.079529,507.587006 785.311340,508.270386 
	C789.712097,508.596130 791.678711,506.018433 790.737061,501.574402 
	C788.949341,493.137665 787.137207,484.706085 785.017944,475.553192 
M646.460754,337.071075 
	C641.780518,315.517487 618.407776,303.864929 602.734497,300.211792 
	C602.619446,302.346344 602.632324,304.490570 602.366699,306.599701 
	C601.468323,313.733643 603.054565,320.722107 603.548340,327.771332 
	C603.593567,328.417236 604.395996,329.336517 605.045044,329.564484 
	C613.799500,332.639160 622.589172,335.613708 631.370117,338.613037 
	C631.488770,338.337891 631.607483,338.062744 631.726135,337.787598 
	C629.354492,336.156982 626.982788,334.526337 624.398315,332.749420 
	C629.338379,331.029297 632.366760,332.522003 647.269958,343.668915 
	C647.880615,341.589630 646.639465,339.766205 646.460754,337.071075 
M263.360046,518.114746 
	C265.961731,525.610901 269.624176,532.500183 275.620331,537.826843 
	C278.319092,540.224304 281.433838,542.007629 284.747528,538.335938 
	C288.358826,534.334595 289.213928,523.301819 286.192352,518.886597 
	C285.256653,517.519348 284.012054,516.767151 282.422943,516.882812 
	C280.497223,517.022827 280.214966,518.564941 280.004272,520.127991 
	C279.791779,521.704712 280.284119,523.535339 278.588348,524.618530 
	C277.340393,524.645813 276.708923,523.820923 276.303436,522.911255 
	C273.438232,516.483459 271.397797,509.773346 271.014160,502.752258 
	C270.724670,497.454651 273.857605,493.145111 278.268097,491.587708 
	C277.848999,488.042755 276.279816,484.861816 274.422913,481.957794 
	C272.376617,478.757690 271.306854,473.152191 266.672028,473.950623 
	C261.592926,474.825684 261.214691,480.559998 260.331635,484.864410 
	C258.061462,495.930725 259.959808,506.714630 263.360046,518.114746 
M507.366516,363.148193 
	C520.403564,367.721832 533.563599,369.962921 548.372559,366.112488 
	C544.458801,363.458801 544.441956,363.611603 541.346741,363.270935 
	C520.119934,360.934692 501.165527,353.157104 484.809784,339.327057 
	C474.710297,330.787231 467.488953,320.108215 461.924652,308.204437 
	C461.211731,306.679230 460.540405,304.326752 458.073944,305.319214 
	C455.974396,306.164032 456.193451,308.227478 456.536652,310.095184 
	C457.473938,315.196289 459.039581,320.042511 461.584808,324.626434 
	C471.815338,343.051453 487.053162,355.505737 507.366516,363.148193 
M334.304443,356.732910 
	C327.027618,353.911072 319.700409,351.210022 312.499298,348.206635 
	C309.701874,347.039917 308.241730,347.771393 306.921234,350.257965 
	C300.340363,362.650452 295.135773,375.560486 292.472015,389.370422 
	C291.906433,392.302826 290.599274,395.325348 291.701019,399.022400 
	C297.295258,393.432465 301.702942,387.428284 307.371735,382.560791 
	C316.071472,375.090820 324.751038,367.613892 333.793243,360.556488 
	C334.657562,359.881836 337.550232,359.085297 334.304443,356.732910 
M742.116272,885.539368 
	C743.117554,888.531067 744.092896,891.531738 745.130859,894.510620 
	C745.660706,896.031616 745.708130,898.165405 747.630554,898.483154 
	C749.772217,898.837036 751.485901,897.400146 752.557678,895.670715 
	C753.499573,894.150757 754.265686,892.405090 754.623779,890.659546 
	C756.613525,880.958252 756.165833,871.137756 755.518677,861.360046 
	C755.274353,857.667664 753.750305,854.090637 750.247192,852.183228 
	C742.986633,848.229492 734.876160,847.791321 726.750183,846.336792 
	C726.072998,856.845642 734.002075,856.595154 741.433167,857.784729 
	C737.959412,860.245605 734.655212,859.472473 732.264709,861.953064 
	C735.443848,869.539978 738.643799,877.176697 742.116272,885.539368 
M321.147919,731.646667 
	C329.561310,725.377136 328.985992,720.651062 319.483032,716.239014 
	C314.297394,713.831482 308.818604,712.646118 303.308655,711.426697 
	C300.313477,710.763733 298.528381,711.696228 297.782471,714.738708 
	C296.558594,719.730896 295.120453,724.672546 293.979370,729.682556 
	C292.756470,735.051758 291.364685,740.430359 291.518463,746.772034 
	C302.256958,742.687256 311.368530,737.306519 321.147919,731.646667 
M776.673218,558.784241 
	C783.771912,556.409241 790.051453,558.943115 796.239258,562.043152 
	C797.872009,562.861145 800.060669,564.205811 800.971985,561.884338 
	C802.345825,558.384705 803.547119,554.445740 802.043213,550.756226 
	C800.614624,547.251526 796.829224,547.297119 793.815918,547.445984 
	C783.993774,547.931030 774.262878,547.050781 764.501343,546.304504 
	C753.428894,545.458069 753.035583,545.967590 754.099121,556.799072 
	C754.229187,558.123352 754.064575,559.531982 754.461670,560.764587 
	C755.821899,564.987793 755.335266,569.929504 759.107727,573.955505 
	C764.310547,567.951477 767.959045,560.953918 776.673218,558.784241 
M642.892578,406.740234 
	C639.334106,402.776337 635.512573,399.497772 629.564819,401.014038 
	C623.579163,402.539948 619.746338,407.242889 619.106201,414.023712 
	C618.352722,422.004913 621.335022,428.347412 627.022583,430.859680 
	C635.569458,434.634979 643.247925,429.117004 642.295044,419.821381 
	C642.133362,418.243744 642.170532,416.727966 643.174133,415.567230 
	C645.562378,412.805145 645.090881,410.121429 642.892578,406.740234 
M726.333557,639.064148 
	C727.660156,641.676392 729.663208,643.051208 732.718018,642.904907 
	C739.422119,642.583862 747.285889,636.834839 749.498291,630.516418 
	C751.038025,626.119141 750.164795,624.223389 745.605103,623.424805 
	C742.367188,622.857605 739.756042,621.247864 736.956421,619.784790 
	C733.267822,617.857300 732.061951,614.065063 729.677246,611.162720 
	C728.066895,609.202820 726.713623,605.737549 723.750916,606.612732 
	C720.437500,607.591431 721.212769,611.255615 721.300842,613.975830 
	C721.571594,622.340149 723.459229,630.414612 726.333557,639.064148 
M763.515930,525.277710 
	C762.695496,525.389404 761.875061,525.500366 761.054688,525.612732 
	C756.525330,526.233032 754.630371,529.168091 754.173645,533.399963 
	C753.695374,537.831238 756.693359,538.494934 760.043945,539.129700 
	C771.214050,541.245605 782.507202,541.736877 793.828003,541.912048 
	C795.424561,541.936768 797.638367,542.150757 797.520630,539.737366 
	C797.413208,537.535278 795.458191,537.404175 793.712158,537.760620 
	C791.446899,538.223022 789.527832,538.263794 788.846008,535.299255 
	C791.184204,533.816162 793.362244,534.920776 795.435913,534.784546 
	C797.472961,534.650757 799.908203,534.771545 799.635620,531.886536 
	C799.401611,529.408813 798.016602,527.411865 794.943726,528.074890 
	C793.122314,528.467957 791.376526,528.407776 789.519958,528.164062 
	C781.125244,527.061951 772.706421,526.143066 763.515930,525.277710 
M341.935608,650.795227 
	C337.289032,647.542297 336.094025,640.778137 329.563721,638.383911 
	C323.433716,649.788208 316.332214,660.285461 313.321777,674.000000 
	C324.225342,671.413757 333.374176,667.757446 341.380707,661.720459 
	C344.990295,658.998962 344.681305,655.118103 341.935608,650.795227 
M778.210938,874.703369 
	C781.643799,874.065857 785.056641,873.271423 788.514526,872.829651 
	C793.076416,872.246765 794.245056,869.558899 793.725525,865.454407 
	C793.197021,861.279480 790.210754,859.414307 786.731201,858.591553 
	C779.947327,856.987427 773.064575,855.796082 766.212341,854.488403 
	C763.494934,853.969849 761.903503,855.012634 762.374084,857.957214 
	C763.191833,863.074280 763.305420,868.221008 763.251587,873.377380 
	C763.223572,876.059021 764.566040,876.969299 767.027954,876.564636 
	C770.471802,875.998474 773.906982,875.379089 778.210938,874.703369 
M533.102478,297.532318 
	C540.730591,301.405151 547.258789,298.723663 547.613220,291.572083 
	C547.902954,285.725708 543.734619,279.458435 538.096863,277.737000 
	C534.887329,276.756989 531.535339,276.348511 528.735168,279.015350 
	C525.865784,281.748138 525.611145,285.164825 526.555420,288.695953 
	C527.486572,292.178009 529.815369,294.798981 533.102478,297.532318 
M464.819305,264.436920 
	C458.209015,290.594574 470.532898,320.969330 485.534882,331.274414 
	C466.699707,307.874268 460.630585,283.111481 469.197418,255.278900 
	C466.952209,257.752686 466.048279,260.729828 464.819305,264.436920 
M752.853882,510.755585 
	C761.718384,514.017273 771.540527,513.611328 780.147583,517.922546 
	C781.999756,518.850220 783.982727,518.348755 785.950989,517.678894 
	C790.455688,516.145813 794.874207,513.976135 799.914185,515.769775 
	C801.000244,516.156250 802.635742,515.870789 802.545227,513.463745 
	C793.114075,513.029785 783.672729,513.776245 774.316345,512.339783 
	C765.118835,510.927704 755.888184,509.788361 746.868896,505.183228 
	C747.184937,509.441956 750.082092,509.535339 752.853882,510.755585 
M680.471924,478.235931 
	C685.845398,477.460846 689.282471,474.296448 690.479248,469.167389 
	C691.454956,464.985748 689.168701,461.739288 686.132324,458.202667 
	C681.938904,464.626007 678.248047,470.394684 680.471924,478.235931 
M274.618591,747.548950 
	C275.885773,749.420715 277.040649,751.431763 280.277069,751.984436 
	C281.240845,744.234924 283.342834,736.929382 283.733673,728.350891 
	C275.548767,732.921631 275.792877,740.285461 274.618591,747.548950 
M742.864868,804.541016 
	C747.170227,805.739563 750.842834,805.007141 752.853760,800.648010 
	C754.277649,797.561096 754.671326,794.391235 750.923889,791.526428 
	C748.302368,796.133484 742.580139,798.111755 742.864868,804.541016 
M696.255493,402.893707 
	C696.356384,405.835358 698.110046,407.865143 700.027527,409.905884 
	C699.469604,401.973755 699.169800,394.161560 700.613403,386.092224 
	C697.030884,386.691650 696.197449,388.855591 696.170288,391.545990 
	C696.135071,395.035797 696.201233,398.526611 696.255493,402.893707 
M675.261719,408.800232 
	C668.772339,410.617523 668.772339,410.617523 669.068481,414.199677 
	C674.243042,411.661987 680.522705,412.342285 685.716553,408.011597 
	C681.721863,406.475342 678.951172,408.294067 675.261719,408.800232 
M831.257080,349.127106 
	C828.462769,349.227936 825.544983,347.279999 822.652222,349.518372 
	C823.485291,352.538788 825.746277,353.068390 828.055908,352.694946 
	C829.786133,352.415131 832.330078,352.313202 831.257080,349.127106 
M677.177673,402.831421 
	C674.911011,403.828033 672.644348,404.824646 670.377625,405.821259 
	C670.522278,406.121857 670.666870,406.422455 670.811523,406.723053 
	C675.194336,405.034088 679.577148,403.345093 684.827148,401.321930 
	C681.192261,399.623260 679.697632,401.747772 677.177673,402.831421 
M288.379486,494.000214 
	C286.792053,492.930328 284.818146,492.574463 284.691132,494.876465 
	C284.558289,497.283600 286.652649,498.228546 288.924896,498.165100 
	C289.689758,496.687378 288.914917,495.666779 288.379486,494.000214 
M361.479187,933.306580 
	C364.086365,936.454712 367.103027,933.947693 369.940887,934.068970 
	C367.279541,933.606934 364.809509,931.741394 361.479187,933.306580 
z" />
	<path fill="#000000" opacity="1.000000" stroke="none" d="
M445.442902,491.757050 
	C416.602020,475.562927 415.277313,432.762054 442.744141,415.190338 
	C456.627686,406.308380 473.200378,408.194641 484.709686,419.966705 
	C500.570862,436.190002 501.966400,465.558289 487.670746,482.282501 
	C476.621826,495.208405 461.540497,498.683014 445.442902,491.757050 
M471.705902,419.673523 
	C464.004730,415.723785 456.586670,416.714935 451.789368,422.334534 
	C446.928314,428.028748 446.636688,437.500671 451.134094,443.616577 
	C455.947998,450.162872 463.912689,452.489075 471.005035,449.234436 
	C482.704987,443.865448 483.048645,426.855103 471.705902,419.673523 
z" />
	<path fill="#000000" opacity="1.000000" stroke="none" d="
M601.913147,485.928955 
	C598.521118,492.124023 590.499695,495.224457 582.587524,492.669189 
	C577.578064,491.051361 573.353027,491.631134 568.718323,493.565125 
	C560.443970,497.017853 552.002075,497.738373 543.638306,493.587646 
	C541.304810,492.429535 541.299500,492.440216 539.691101,489.744995 
	C540.830933,488.759644 541.973145,489.440216 542.923279,489.947174 
	C551.995422,494.788147 561.006226,493.217194 569.804504,489.414581 
	C573.699341,487.731232 577.206665,487.152527 581.273071,488.704376 
	C586.849731,490.832550 592.366211,490.072632 597.609314,487.235931 
	C598.897095,486.539185 600.067627,485.462463 601.913147,485.928955 
z" />
	<path fill="#000000" opacity="1.000000" stroke="none" d="
M578.260620,464.761719 
	C580.907043,464.847778 583.918945,464.169159 583.894714,467.595184 
	C583.871460,470.863770 581.279297,472.558716 578.295837,472.852417 
	C575.705994,473.107300 572.958435,472.002441 572.534302,469.246521 
	C571.971069,465.586426 575.389587,465.505310 578.260620,464.761719 
z" />
	<path fill="#000000" opacity="1.000000" stroke="none" d="
M458.451416,892.352051 
	C515.242615,887.331055 570.805725,875.978394 627.232361,871.474792 
	C600.727966,878.062378 573.466309,880.042480 546.787781,885.022034 
	C546.593811,886.859802 549.065674,886.916931 548.600159,888.219604 
	C515.324890,891.438965 482.551788,897.793762 449.262512,899.401001 
	C422.170624,900.709045 395.253662,903.944702 368.293427,906.707092 
	C364.520691,907.093689 360.738861,907.598572 356.891083,906.330688 
	C390.323334,899.645813 424.272614,896.791992 458.451416,892.352051 
z" />
	<path fill="#000000" opacity="1.000000" stroke="none" d="
M203.772705,841.689514 
	C201.611633,842.000183 199.827362,842.849121 197.063309,840.581177 
	C224.196014,835.233032 250.643433,832.300842 277.719421,829.473145 
	C276.960205,833.219360 274.840637,833.067017 272.981659,833.355652 
	C250.147186,836.900879 227.254471,839.957947 203.772705,841.689514 
z" />
	<path fill="#000000" opacity="1.000000" stroke="none" d="
M786.932007,407.650635 
	C786.910278,404.578430 786.910278,401.936646 786.910278,399.294861 
	C788.547241,403.962646 789.564697,408.674713 789.607727,414.656219 
	C787.020996,412.269318 787.243225,410.076904 786.932007,407.650635 
z" />
	<path fill="#000000" opacity="1.000000" stroke="none" d="
M853.379395,464.751709 
	C846.173584,465.352203 845.780823,466.665344 849.335632,478.250549 
	C845.251831,475.563110 842.877808,472.379456 843.714966,467.911652 
	C844.434937,464.068695 847.471313,462.213837 851.270935,461.839294 
	C854.825012,461.488983 857.586121,462.623383 859.103577,466.414490 
	C856.751404,466.809662 855.459167,465.094116 853.379395,464.751709 
z" />
	<path fill="#000000" opacity="1.000000" stroke="none" d="
M838.398560,481.753998 
	C837.641907,474.608368 833.507446,473.120422 827.447021,474.278503 
	C826.463196,474.466461 825.116760,474.669800 824.249817,473.015747 
	C828.590210,470.774719 833.073303,470.646576 837.456726,472.156219 
	C840.849487,473.324738 841.478455,479.798584 838.398560,481.753998 
z" />
	<path fill="#000000" opacity="1.000000" stroke="none" d="
M851.091064,415.372437 
	C849.796814,418.762573 849.564209,422.344391 849.365784,426.195404 
	C844.516174,422.257202 845.309509,418.040924 851.091064,415.372437 
z" />
	<path fill="#000000" opacity="1.000000" stroke="none" d="
M825.648682,393.234009 
	C828.617981,389.902191 830.970825,390.213287 832.069214,393.753204 
	C832.408264,394.845917 832.570374,396.047333 832.535889,397.190582 
	C832.473389,399.263916 832.929565,401.857147 829.821716,402.161041 
	C826.572571,402.478729 826.146301,399.967529 825.821533,397.598114 
	C825.642151,396.289429 825.668579,394.952484 825.648682,393.234009 
z" />
	<path fill="#000000" opacity="1.000000" stroke="none" d="
M820.852173,404.591003 
	C820.104980,400.546417 822.120972,396.371033 818.860596,392.910004 
	C818.343079,392.360596 818.858337,391.283691 819.715393,390.876068 
	C820.749695,390.384064 821.646240,390.729248 822.353516,391.569794 
	C823.467285,392.893555 823.902283,394.529816 824.026550,396.166016 
	C824.354309,400.480042 824.518799,404.806488 824.751465,409.187408 
	C821.024902,409.144806 822.302795,406.108154 820.852173,404.591003 
z" />
</svg>