<svg width="1118" height="360" viewBox="0 0 1118 360" fill="none" xmlns="http://www.w3.org/2000/svg">
<path d="M59.9804 308.31L63.314 295.869C63.5351 295.044 64.0752 294.34 64.8153 293.913C65.5555 293.486 66.4351 293.371 67.2607 293.592L67.2649 293.593L112.285 125.576L112.281 125.575C111.455 125.354 110.751 124.814 110.324 124.074C109.896 123.334 109.78 122.455 110.001 121.63L113.335 109.189C113.556 108.363 114.096 107.66 114.836 107.233C115.576 106.806 116.456 106.69 117.282 106.911L126.621 109.414L132.457 87.6301L120.005 84.2937L138.345 15.8483L206.835 34.2001L205.168 40.4227L214.478 42.9173C216.192 43.3766 217.216 45.1495 216.757 46.8628L203.417 96.6484C203.196 97.4736 202.656 98.1771 201.916 98.6041C201.175 99.0312 200.296 99.1468 199.47 98.9256L190.16 96.431L188.495 102.645L176.043 99.3089L170.206 121.092L179.545 123.595C181.26 124.054 182.284 125.827 181.825 127.54L178.491 139.982C178.27 140.807 177.73 141.51 176.99 141.937C176.25 142.364 175.37 142.48 174.544 142.259L174.54 142.258L129.52 310.274L129.524 310.275C131.239 310.735 132.263 312.507 131.804 314.221L128.47 326.662C128.249 327.487 127.709 328.191 126.969 328.618C126.229 329.045 125.349 329.16 124.523 328.939L62.2597 312.256C61.4341 312.034 60.7302 311.495 60.3027 310.755C59.8753 310.015 59.7593 309.135 59.9804 308.31ZM123.078 321.882L124.744 315.664L68.7063 300.649L67.0401 306.867L123.078 321.882ZM123.294 308.606L168.314 140.589L118.511 127.245L73.4908 295.261L123.294 308.606ZM173.099 135.202L174.765 128.983L118.727 113.968L117.061 120.187L173.099 135.202ZM67.6161 43.2269L72.4404 25.2226C94.9781 30.399 115.785 26.0634 123.673 15.2517L131.286 17.2914L114.612 79.5182L107 77.4785C105.574 64.1711 89.7226 50.0129 67.6161 43.2269ZM198.025 91.8688L209.697 48.3059L203.5 46.6454L191.828 90.2084L198.025 91.8688ZM116.478 47.6492L116.967 45.8239C117.292 44.6126 116.498 43.3416 115.207 42.9957L82.5418 34.243C81.251 33.8972 79.9363 34.6031 79.6117 35.8145L79.1226 37.6398C78.798 38.8511 79.5836 40.1198 80.8745 40.4657L113.54 49.2184C114.831 49.5643 116.154 48.8606 116.478 47.6492Z" fill="#008080"/>
<path d="M357.998 192.524C357.998 151.389 327.09 118.98 289.806 118.98C285.787 118.98 219.258 126.044 219.258 192.524C219.258 234.351 250.027 265.652 287.45 265.652C291.331 265.652 357.998 258.866 357.998 192.524ZM293.548 255.542C260.977 255.542 238.801 217.454 238.801 181.859C238.801 153.744 253.492 128.952 284.262 128.952C316.972 128.952 338.178 167.04 338.178 202.634C338.178 231.72 324.179 255.542 293.548 255.542ZM434.229 174.242C434.645 171.749 434.783 169.394 436.169 167.04C436.169 165.516 434.783 164.824 434.783 164.824C421.062 166.07 414.825 166.07 406.786 166.07C406.786 152.359 408.588 131.999 408.588 131.999C407.479 130.891 406.231 130.891 405.123 130.891C397.5 139.894 390.292 142.802 390.292 142.802C390.292 142.802 390.569 153.744 390.569 159.284C390.569 161.5 390.569 166.07 389.045 166.07H375.185C374.769 168.702 374.769 170.364 373.521 173.134C373.521 174.657 374.769 175.073 374.769 175.073C374.769 175.073 381.283 174.796 389.183 174.796C390.569 174.796 390.569 178.951 390.569 186.291V231.304C390.569 251.664 396.807 265.652 409.142 265.652C424.527 260.805 430.071 258.45 441.713 252.218C441.713 249.171 440.05 247.232 438.803 246.816C430.487 250.279 426.051 252.218 417.735 252.218C406.647 252.218 406.647 229.365 406.647 220.086V174.657L434.229 174.242ZM546.773 214.407C546.773 185.737 525.429 163.023 498.263 163.023C469.157 167.732 447.95 182.413 447.95 214.407C447.95 243.631 469.572 265.652 496.738 265.652C525.567 260.943 546.773 246.401 546.773 214.407ZM500.896 257.204C478.443 257.204 465.83 231.997 465.83 206.789C465.83 187.261 473.453 171.195 494.382 171.195C516.836 171.195 528.894 196.54 528.894 221.609C528.894 241.692 521.964 257.204 500.896 257.204ZM616.351 175.073C617.044 177.15 619.124 187.815 619.539 190.169C620.232 190.308 621.203 190.585 622.173 190.585C623.559 190.585 624.529 190.308 625.361 189.754C626.054 181.859 627.44 171.195 628.41 168.009C623.836 166.07 611.223 163.023 601.798 163.023C586.968 163.023 567.702 169.948 567.702 190.169C567.702 203.742 577.959 211.914 586.552 215.931L601.105 222.994C602.769 223.964 617.183 229.088 617.183 241.692C617.183 253.326 608.035 258.035 597.917 258.035C587.661 258.035 580.176 252.633 578.375 250.833C574.91 246.816 573.108 239.753 571.583 235.875C571.029 235.598 570.197 235.598 569.781 235.598C568.257 235.598 567.148 236.152 565.9 236.844C567.564 245.293 569.088 255.542 569.504 261.082C573.662 263.021 586.136 265.652 596.947 265.652C615.104 265.652 632.291 255.265 632.291 236.844C632.291 219.809 615.797 211.083 610.253 208.451L595.007 201.249C588.631 198.064 582.671 192.108 582.671 185.183C582.671 175.073 590.017 169.948 599.581 169.948C609.421 169.948 615.104 173.826 616.351 175.073ZM700.205 163.023C695.632 163.023 652.111 169.671 652.111 215.238C652.111 242.107 666.248 265.652 696.879 265.652C704.363 265.652 711.848 262.467 712.68 261.913L731.529 249.171C731.529 246.262 729.728 245.293 729.728 245.293C717.946 250.279 711.294 252.633 701.176 252.633C677.752 252.633 668.188 229.781 668.188 207.482C668.188 190.585 679.277 170.779 692.721 170.779C704.918 170.779 712.402 177.427 719.61 185.876C729.173 183.521 731.252 174.242 731.252 174.242C724.045 167.732 714.204 163.023 700.205 163.023ZM839.361 214.407C839.361 185.737 818.017 163.023 790.851 163.023C761.745 167.732 740.538 182.413 740.538 214.407C740.538 243.631 762.16 265.652 789.326 265.652C818.155 260.943 839.361 246.401 839.361 214.407ZM793.623 257.204C771.031 257.204 758.418 231.997 758.418 206.789C758.418 187.261 766.041 171.195 786.97 171.195C809.424 171.195 821.482 196.54 821.482 221.609C821.482 241.692 814.552 257.204 793.623 257.204ZM883.437 262.744C884.961 263.021 896.05 265.652 900.485 265.652C906.722 265.652 954.955 260.943 954.955 214.407C954.955 187.399 936.383 166.486 918.503 163.023C902.425 169.394 899.93 170.364 884.407 180.059C883.853 169.394 876.784 163.023 873.735 163.023C873.735 163.023 865.973 168.425 851.143 170.918C851.143 170.918 851.004 171.749 851.004 172.718C851.004 173.549 851.004 174.796 851.836 176.181C854.053 176.181 856.687 175.765 858.627 175.765C866.389 175.765 867.913 183.244 867.913 202.911V250.279C867.913 273.547 867.498 303.047 865.973 313.85C865.141 319.944 863.201 325.485 851.558 328.255C851.558 328.255 851.143 328.947 851.143 329.778C851.143 330.748 851.558 332.271 852.39 333.102C862.785 331.579 873.735 331.579 879.556 331.579C884.546 331.579 896.743 332.133 907.415 332.133C907.831 330.886 907.831 329.917 907.831 329.224C907.831 327.424 907.415 326.039 907.415 326.039C899.099 326.039 891.614 326.039 885.793 325.485C883.853 325.346 883.437 289.613 883.437 273.547V262.744ZM883.853 188.784C889.951 183.521 899.376 176.596 908.662 176.596C922.938 176.596 938.739 197.51 938.739 221.609C938.739 240.584 927.096 257.204 910.048 257.204C905.336 257.204 883.437 250.694 883.437 246.401C883.437 230.473 883.437 204.85 883.853 188.784ZM1001.53 225.072C1001.53 216.762 1001.8 174.242 1003.88 162.192C1003.88 162.192 1003.33 159.976 1000.97 159.976C995.566 162.608 992.516 164.131 986.002 166.486C979.072 168.84 976.023 169.394 969.786 170.779C969.786 170.779 969.231 171.749 969.231 173.272C969.231 174.103 969.231 175.073 969.786 175.765C969.786 175.765 974.359 176.181 976.993 176.458C986.695 177.427 986.834 185.876 986.834 201.249V219.809C986.834 227.565 986.834 240.584 985.863 244.046C984.339 249.863 982.814 255.68 971.172 258.45C971.172 258.45 970.756 259.143 970.756 259.974C970.756 260.943 971.172 262.328 971.865 263.298C982.398 261.913 991.685 261.774 997.506 261.774C1000.56 261.774 1008.59 262.328 1014.97 262.328C1015.52 261.082 1015.52 260.112 1015.52 259.42C1015.52 257.619 1014.97 256.234 1014.97 256.234C1010.95 256.234 1007.07 256.234 1004.16 255.68C1002.36 255.542 1001.53 233.936 1001.53 225.072ZM996.674 137.816C1000.97 136.293 1007.07 131.445 1009.56 128.121C1008.32 123.828 1004.44 118.426 1000 115.102C996.12 116.626 989.883 121.335 986.834 125.074C988.635 129.645 992.1 134.492 996.674 137.816ZM1100.35 238.506C1100.35 223.133 1100.9 195.155 1100.9 191.139C1100.9 177.15 1093.97 163.023 1073.74 163.023C1071.8 163.023 1050.45 169.671 1046.99 171.887C1039.64 177.981 1036.87 181.998 1036.87 187.122C1036.87 191 1037.42 194.463 1044.63 194.463C1048.93 194.463 1052.95 192.939 1052.95 191.97C1052.95 187.815 1052.95 183.383 1055.58 178.12C1058.49 171.887 1069.44 170.779 1072.21 170.779C1079.14 170.779 1084.69 177.012 1084.69 191.97V210.39C1059.46 215.238 1046.57 220.64 1042 222.994C1037.42 225.072 1033.4 231.443 1033.4 239.476C1033.4 255.68 1046.57 265.652 1053.92 265.652C1066.95 261.774 1075.68 257.065 1084.82 251.387C1085.38 257.204 1089.54 263.852 1095.5 265.652C1096.61 264.683 1102.43 260.112 1116.84 257.619C1116.84 257.619 1117.26 256.927 1117.26 255.542C1117.26 254.711 1117.26 253.326 1116.43 252.356C1114.07 252.356 1111.16 252.633 1109.5 252.633C1101.73 252.633 1100.35 244.877 1100.35 238.506ZM1063.06 254.018C1055.86 254.018 1050.73 243.908 1050.73 238.506C1050.73 232.274 1052.39 228.396 1055.86 226.595C1062.37 222.994 1070.13 219.255 1084.69 217.316C1084.69 232.274 1083.99 243.631 1083.99 243.631C1079.42 247.924 1069.44 254.018 1063.06 254.018Z" fill="#008080"/>
<path d="M89.4999 317C67.7438 387.605 255.83 348.57 369.889 315.823C410.883 304.054 452.347 292.717 494.993 292.106C499.929 292.035 504.832 292.024 509.698 292.067C633.754 293.168 765.922 378.671 875.5 320.5V320.5" stroke="#008080" stroke-width="5"/>
</svg>
